PathFileType	4	(X/Y/Z)	Walk5.trc
DataRate	CameraRate	NumFrames	NumMarkers	Units	OrigDataRate	OrigDataStartFrame	OrigNumFrames
200.000000	200.000000	8	69	mm	200.000000	249	453
Frame#	Times		LFHD		RFHD		LBHD		RBHD		C7		CLAV		STRN		RBack		LASI		RASI		LPSI		RPSI		RACR1		RUA1		RElbow		RFA1		RWRR		RWRU		RCAR		LACR1		LUA1		LElbow		LElbowM		LFA1		LWRR		LWRU		LCAR		RTH1		RTH3		RTH2		RTH4		RLFC		RTB1		RTB3		RTB2		RTB4		RLMAL		RMMAL		RCAL		RMT1		RMT5		RToe		LTH1		LTH3		LTH2		LTH4		LLFC		LTB1		LTB3		LTB2		LTB4		LMMAL		LMT1		LMT5		LHJC		LowerBodyModelVer		MidPelvis		OPelvis		PELOrigin		RHJC		SACR		XPelvis		YPelvis		ZPelvis		LToe		T10		LLMAL		LCAL		RElbowM
			X1	Y1	Z1	X2	Y2	Z2	X3	Y3	Z3	X4	Y4	Z4	X5	Y5	Z5	X6	Y6	Z6	X7	Y7	Z7	X8	Y8	Z8	X9	Y9	Z9	X10	Y10	Z10	X11	Y11	Z11	X12	Y12	Z12	X13	Y13	Z13	X14	Y14	Z14	X15	Y15	Z15	X16	Y16	Z16	X17	Y17	Z17	X18	Y18	Z18	X19	Y19	Z19	X20	Y20	Z20	X21	Y21	Z21	X22	Y22	Z22	X23	Y23	Z23	X24	Y24	Z24	X25	Y25	Z25	X26	Y26	Z26	X27	Y27	Z27	X28	Y28	Z28	X29	Y29	Z29	X30	Y30	Z30	X31	Y31	Z31	X32	Y32	Z32	X33	Y33	Z33	X34	Y34	Z34	X35	Y35	Z35	X36	Y36	Z36	X37	Y37	Z37	X38	Y38	Z38	X39	Y39	Z39	X40	Y40	Z40	X41	Y41	Z41	X42	Y42	Z42	X43	Y43	Z43	X44	Y44	Z44	X45	Y45	Z45	X46	Y46	Z46	X47	Y47	Z47	X48	Y48	Z48	X49	Y49	Z49	X50	Y50	Z50	X51	Y51	Z51	X52	Y52	Z52	X53	Y53	Z53	X54	Y54	Z54	X55	Y55	Z55	X56	Y56	Z56	X57	Y57	Z57	X58	Y58	Z58	X59	Y59	Z59	X60	Y60	Z60	X61	Y61	Z61	X62	Y62	Z62	X63	Y63	Z63	X64	Y64	Z64	X65	Y65	Z65	X66	Y66	Z66	X67	Y67	Z67	X68	Y68	Z68	X69	Y69	Z69

249	1.245	-21.991	1568.3	-67.785	-2.9256	1570.3	25.307	-181.01	1524.6	-66.475	-152.41	1527.7	73.164	-197.84	1389.1	1.3475	-56.541	1314.3	-6.5411	5.9297	1211.1	-1.6283	-250.9	1285.1	98.907	5.1557	931.9	-144.08	1.5124	956.09	146.66	-244.22	936.51	-43.41	-244.06	940.62	46.651	-128.46	1340.9	151.92	-157.5	1155.5	240.18	-214.23	1037.3	256.53	-221.48	891.46	274.03	-146.98	785.8	249.07	-209.38	782.49	285.04	-150.42	733.69	300.14	-118.12	1352.7	-160.69	-84.404	1179.2	-256.55	-83.658	1054	-294.57	-116.03	1012.1	-228.17	-15.687	931.03	-303.8	93.347	869.03	-244.39	59.141	839.84	-302.29	131.46	837.24	-283.84	-35.806	724.3	215.51	15.29	565.54	167.47	41.721	666.88	174.37	-10.784	643.66	192.02	43.205	488.53	138.84	121.07	351.56	63.359	145.61	180.49	64.91	112.79	263.36	119.95	133.34	266.03	64.134	128.84	60.673	91.236	142.22	71.421	8.8091	68.705	24.338	53.323	246.12	39.108	32.027	216.8	25.625	104.05	309.06	44.823	59.883	-119.5	729.25	-224.31	-178.45	582.47	-158.95	-94.449	646.69	-167.89	-149.03	657.67	-185.85	-219.34	466.18	-127.12	-250.04	315.78	-51.145	-354.11	178.63	-57.525	-317.86	259.07	-110.82	-303.66	247.37	-53.174	-436.38	105.14	-1.2303	-357.54	34.089	-14.869	-384.84	33.079	-93.473	-62.127	841.17	-90.527	9	2014	4	-120.4	941.28	1.4561	3.3341	943.99	1.2911	3.3341	943.99	1.2911	-64.604	857.62	107.18	-244.14	938.56	1.621	83.309	945.83	2.1407	1.5769	1023.7	-5.3624	2.3351	950.63	81.009	-289.84	20.516	-42.931	-258.99	1121	-14.378	-446.18	107.47	-86.375	-517.21	109.59	-55.509	-211.96	1008.8	162.97
250	1.25	-16.486	1569.2	-67.153	2.6441	1571.3	25.927	-175.32	1524.8	-65.719	-146.63	1528	73.902	-191.68	1389.7	2.0651	-50.405	1314.9	-5.7679	12.098	1211.7	-0.69313	-244.78	1285.6	99.512	11.696	932.13	-142.94	7.7977	956.92	147.18	-237.86	936.95	-43.467	-237.94	941.3	46.65	-122.4	1341.4	152.64	-151.31	1155.9	240.79	-207.9	1037.7	257.04	-215.04	891.8	274.53	-140.34	786.2	249.72	-202.85	782.83	285.56	-143.84	734.12	300.81	-111.82	1353.2	-159.98	-79.182	1179.4	-255.82	-79.171	1054.2	-293.62	-111.63	1012.6	-227.02	-11.578	930.95	-302.58	97.426	868.91	-243.08	63.058	839.58	-300.83	135.39	836.93	-282.48	-29.621	725.37	215.82	20.907	566.47	167.67	47.772	667.65	175.03	-4.892	644.67	192.24	48.987	489.3	139.07	125.16	351.38	62.808	147.84	180.05	64.389	116.63	263.4	119.7	136.5	265.72	63.599	129.6	60.515	91.026	142.71	70.924	8.4821	68.863	24.69	53.379	246.52	37.64	31.499	216.95	25.308	104.2	309.98	42.386	59.199	-112.46	729.08	-223.67	-170.97	582.09	-158.46	-87.21	646.66	-167.13	-141.79	657.45	-185.24	-211.52	465.78	-126.82	-244.15	315.59	-51.132	-350.27	180.08	-57.799	-312.68	259.98	-110.98	-298.82	248.04	-53.284	-433.69	107.98	-1.7121	-357.02	34.495	-14.951	-384.09	34.058	-93.422	-55.554	841.72	-89.349	9	2014	4	-114.08	941.83	1.8574	9.7469	944.52	2.1231	9.7469	944.52	2.1231	-58.205	858.58	107.94	-237.9	939.13	1.5918	89.721	946.33	3.0433	8.0256	1024.2	-4.7105	8.6759	951.33	81.825	-290	20.5	-42.833	-252.9	1121.6	-14.071	-443.43	110.42	-86.827	-514.24	114.24	-55.903	-205.45	1009.2	163.52
251	1.255	-10.972	1570.1	-66.514	8.223	1572.3	26.554	-169.62	1525.1	-64.961	-140.83	1528.4	74.641	-185.49	1390.3	2.7766	-44.254	1315.5	-4.9994	18.26	1212.3	0.24736	-238.67	1286.2	100.11	18.234	932.46	-141.79	14.064	957.85	147.69	-231.5	937.44	-43.544	-231.82	942.04	46.622	-116.32	1341.9	153.35	-145.1	1156.4	241.4	-201.56	1038.1	257.55	-208.57	892.22	275.03	-133.64	786.7	250.38	-196.27	783.25	286.06	-137.2	734.65	301.47	-105.5	1353.9	-159.26	-73.98	1179.8	-255.09	-74.737	1054.5	-292.68	-107.29	1013.2	-225.86	-7.5869	930.93	-301.36	101.36	868.8	-241.79	66.809	839.33	-299.38	139.16	836.6	-281.14	-23.494	726.5	216.18	26.459	567.47	167.92	53.762	668.48	175.75	0.9388	645.74	192.49	54.68	490.11	139.31	129.14	351.23	62.426	149.92	179.66	63.988	120.25	263.45	119.56	139.53	265.44	63.207	130.26	60.396	90.864	143.13	70.525	8.2248	68.999	24.997	53.45	246.84	36.443	31.061	217.06	25.118	104.39	310.79	40.253	58.647	-105.35	728.93	-223	-163.29	581.68	-157.98	-79.827	646.67	-166.35	-134.42	657.23	-184.6	-203.39	465.33	-126.53	-237.96	315.39	-51.183	-346.16	181.59	-58.102	-307.23	260.92	-111.17	-293.69	248.73	-53.442	-430.71	110.93	-2.1997	-356.45	34.94	-15.021	-383.29	35.114	-93.337	-48.962	842.37	-88.173	9	2014	4	-107.76	942.45	2.2441	16.149	945.16	2.9492	16.149	945.16	2.9492	-51.798	859.63	108.67	-231.66	939.74	1.539	96.123	946.95	3.9436	14.447	1024.8	-4.0636	15.001	952.15	82.635	-290.22	20.484	-42.735	-246.81	1122.3	-13.777	-440.44	113.49	-87.271	-510.94	119.08	-56.236	-198.94	1009.6	164.07
252	1.26	-5.4509	1571.1	-65.866	13.81	1573.4	27.189	-163.91	1525.3	-64.203	-135.02	1528.8	75.379	-179.3	1391	3.482	-38.091	1316.2	-4.238	24.414	1213	1.1895	-232.54	1286.8	100.69	24.758	932.91	-140.65	20.309	958.88	148.18	-225.16	937.97	-43.639	-225.72	942.82	46.572	-110.21	1342.5	154.04	-138.86	1157	242.01	-195.21	1038.6	258.08	-202.08	892.73	275.53	-126.89	787.31	251.05	-189.66	783.76	286.54	-130.52	735.27	302.14	-99.16	1354.6	-158.53	-68.797	1180.2	-254.37	-70.351	1054.9	-291.73	-103.02	1013.9	-224.69	-3.707	930.97	-300.14	105.16	868.69	-240.52	70.401	839.1	-297.94	142.77	836.25	-279.81	-17.429	727.69	216.58	31.948	568.52	168.21	59.682	669.36	176.5	6.706	646.85	192.79	60.256	490.95	139.58	132.99	351.1	62.216	151.87	179.31	63.704	123.63	263.49	119.51	142.43	265.21	62.96	130.82	60.309	90.746	143.48	70.218	8.0303	69.116	25.261	53.532	247.1	35.49	30.704	217.13	25.027	104.61	311.51	38.405	58.213	-98.166	728.81	-222.3	-155.4	581.25	-157.51	-72.305	646.73	-165.55	-126.92	657.01	-183.96	-194.95	464.84	-126.26	-231.45	315.18	-51.309	-341.77	183.17	-58.44	-301.52	261.92	-111.41	-288.26	249.45	-53.657	-427.43	114	-2.696	-355.81	35.434	-15.081	-382.42	36.254	-93.218	-42.363	843.11	-87.011	9	2014	4	-101.45	943.14	2.6154	22.533	945.89	3.7642	22.533	945.89	3.7642	-45.388	860.77	109.39	-225.44	940.39	1.4666	102.51	947.7	4.8337	20.833	1025.6	-3.4247	21.306	953.06	83.433	-290.5	20.465	-42.637	-240.74	1123	-13.49	-437.18	116.69	-87.709	-507.28	124.12	-56.508	-192.43	1010.2	164.61
253	1.265	0.07714	1572.1	-65.212	19.405	1574.5	27.829	-158.19	1525.7	-63.445	-129.2	1529.3	76.116	-173.1	1391.7	4.1811	-31.923	1316.9	-3.4865	30.555	1213.8	2.1297	-226.42	1287.5	101.25	31.254	933.46	-139.53	26.528	959.99	148.65	-218.83	938.53	-43.746	-219.63	943.63	46.505	-104.09	1343.2	154.72	-132.6	1157.6	242.6	-188.86	1039.2	258.61	-195.57	893.32	276.03	-120.09	788	251.74	-183.01	784.33	287.01	-123.8	735.99	302.82	-92.805	1355.4	-157.8	-63.629	1180.7	-253.67	-66.011	1055.3	-290.78	-98.809	1014.7	-223.53	0.068144	931.06	-298.95	108.83	868.58	-239.26	73.84	838.89	-296.51	146.23	835.87	-278.49	-11.431	728.92	217.03	37.373	569.62	168.54	65.529	670.29	177.28	12.406	648.01	193.12	65.687	491.79	139.88	136.71	350.99	62.18	153.69	179	63.534	126.76	263.52	119.57	145.2	264.99	62.857	131.3	60.249	90.665	143.77	69.993	7.8907	69.213	25.485	53.621	247.3	34.754	30.417	217.16	25.012	104.85	312.14	36.815	57.882	-90.93	728.73	-221.57	-147.3	580.78	-157.05	-64.649	646.83	-164.76	-119.3	656.8	-183.32	-186.2	464.29	-126.03	-224.62	314.96	-51.52	-337.08	184.82	-58.819	-295.53	262.96	-111.69	-282.51	250.2	-53.936	-423.82	117.16	-3.2042	-355.11	35.989	-15.131	-381.49	37.481	-93.066	-35.769	843.94	-85.873	9	2014	4	-95.17	943.9	2.9712	28.891	946.73	4.5629	28.891	946.73	4.5629	-38.982	861.98	110.09	-219.23	941.08	1.3796	108.86	948.56	5.7058	27.173	1026.4	-2.7967	27.585	954.06	84.215	-290.83	20.442	-42.538	-234.67	1123.7	-13.208	-433.64	120.01	-88.144	-503.24	129.34	-56.72	-185.92	1010.8	165.15
254	1.27	5.6107	1573.2	-64.551	25.008	1575.7	28.475	-152.46	1526.1	-62.689	-123.37	1529.8	76.85	-166.91	1392.5	4.8737	-25.755	1317.7	-2.7479	36.679	1214.6	3.0642	-220.29	1288.3	101.81	37.712	934.13	-138.44	32.721	961.19	149.12	-212.52	939.11	-43.859	-213.56	944.48	46.427	-97.951	1343.9	155.38	-126.32	1158.4	243.19	-182.5	1039.9	259.15	-189.04	893.99	276.53	-113.25	788.79	252.43	-176.32	784.98	287.46	-117.03	736.79	303.49	-86.447	1356.2	-157.06	-58.476	1181.3	-252.96	-61.712	1055.9	-289.84	-94.651	1015.6	-222.37	3.7457	931.2	-297.77	112.36	868.47	-238.03	77.134	838.68	-295.11	149.54	835.46	-277.18	-5.5016	730.16	217.52	42.729	570.74	168.9	71.295	671.24	178.08	18.036	649.18	193.49	70.94	492.63	140.2	140.3	350.89	62.311	155.37	178.71	63.469	129.65	263.53	119.71	147.83	264.8	62.89	131.71	60.211	90.615	144.01	69.839	7.7979	69.293	25.672	53.715	247.45	34.203	30.19	217.17	25.052	105.1	312.69	35.461	57.637	-83.65	728.69	-220.81	-139	580.28	-156.63	-56.866	646.99	-163.97	-111.56	656.59	-182.67	-177.13	463.71	-125.84	-217.46	314.72	-51.823	-332.09	186.52	-59.245	-289.25	264.05	-112.02	-276.44	250.96	-54.284	-419.86	120.42	-3.728	-354.33	36.618	-15.173	-380.47	38.803	-92.881	-29.191	844.85	-84.766	9	2014	4	-88.912	944.72	3.3124	35.216	947.66	5.3407	35.216	947.66	5.3407	-32.586	863.25	110.77	-213.04	941.79	1.2841	115.19	949.53	6.552	33.459	1027.3	-2.1831	33.834	955.15	84.977	-291.22	20.411	-42.438	-228.62	1124.5	-12.926	-429.8	123.43	-88.581	-498.8	134.73	-56.874	-179.44	1011.5	165.69
255	1.275	11.149	1574.3	-63.885	30.616	1576.9	29.125	-146.73	1526.5	-61.936	-117.53	1530.3	77.579	-160.72	1393.4	5.5588	-19.592	1318.5	-2.0253	42.782	1215.5	3.9891	-214.17	1289.1	102.36	44.121	934.89	-137.39	38.884	962.45	149.57	-206.23	939.71	-43.969	-207.51	945.35	46.344	-91.796	1344.8	156.02	-120.01	1159.2	243.78	-176.13	1040.7	259.7	-182.49	894.72	277.04	-106.36	789.66	253.14	-169.59	785.7	287.89	-110.22	737.67	304.16	-80.093	1357.1	-156.32	-53.335	1181.9	-252.27	-57.449	1056.5	-288.92	-90.542	1016.6	-221.22	7.3335	931.39	-296.61	115.77	868.34	-236.82	80.292	838.49	-293.73	152.7	835.01	-275.89	0.36032	731.42	218.05	48.008	571.87	169.31	76.975	672.2	178.87	23.59	650.37	193.9	75.988	493.44	140.54	143.74	350.8	62.598	156.93	178.45	63.501	132.28	263.52	119.94	150.33	264.62	63.049	132.06	60.187	90.589	144.21	69.746	7.7437	69.357	25.825	53.81	247.56	33.808	30.014	217.16	25.13	105.35	313.17	34.314	57.463	-76.337	728.68	-220.02	-130.51	579.75	-156.24	-48.963	647.19	-163.2	-103.7	656.38	-182.02	-167.76	463.07	-125.71	-209.97	314.47	-52.225	-326.77	188.28	-59.724	-282.67	265.18	-112.41	-270.05	251.75	-54.708	-415.56	123.75	-4.271	-353.45	37.337	-15.21	-379.36	40.225	-92.669	-22.643	845.83	-83.699	9	2014	4	-82.684	945.6	3.6401	41.503	948.67	6.0929	41.503	948.67	6.0929	-26.203	864.57	111.43	-206.87	942.53	1.1873	121.47	950.62	7.3651	39.686	1028.3	-1.5869	40.05	956.32	85.713	-291.64	20.37	-42.337	-222.58	1125.4	-12.638	-425.65	126.96	-89.024	-493.94	140.27	-56.973	-172.98	1012.3	166.24
256	1.28	16.691	1575.5	-63.215	36.231	1578.1	29.779	-140.99	1527	-61.187	-111.68	1530.8	78.303	-154.54	1394.2	6.2354	-13.44	1319.4	-1.3217	48.861	1216.4	4.9006	-208.04	1290	102.89	50.47	935.74	-136.39	45.019	963.78	150.02	-199.97	940.33	-44.07	-201.48	946.23	46.264	-85.629	1345.6	156.64	-113.69	1160	244.35	-169.76	1041.5	260.26	-175.93	895.51	277.55	-99.443	790.6	253.85	-162.83	786.47	288.32	-103.37	738.63	304.84	-73.754	1358.1	-155.59	-48.206	1182.7	-251.59	-53.219	1057.1	-288	-86.478	1017.7	-220.09	10.84	931.62	-295.47	119.05	868.19	-235.63	83.323	838.31	-292.39	155.73	834.53	-274.62	6.1562	732.68	218.62	53.198	573	169.74	82.564	673.16	179.65	29.064	651.56	194.33	80.805	494.21	140.92	147.02	350.7	63.027	158.38	178.2	63.617	134.67	263.49	120.24	152.7	264.45	63.322	132.35	60.175	90.584	144.38	69.7	7.72	69.406	25.948	53.904	247.63	33.541	29.879	217.13	25.234	105.59	313.58	33.349	57.347	-69	728.71	-219.21	-121.82	579.19	-155.89	-40.948	647.44	-162.45	-95.737	656.17	-181.39	-158.09	462.4	-125.64	-202.15	314.19	-52.731	-321.12	190.08	-60.26	-275.81	266.36	-112.86	-263.31	252.54	-55.211	-410.88	127.15	-4.8371	-352.46	38.16	-15.243	-378.13	41.754	-92.433	-16.133	846.86	-82.677	9	2014	4	-76.492	946.52	3.9565	47.745	949.76	6.8159	47.745	949.76	6.8159	-19.841	865.93	112.09	-200.73	943.28	1.0971	127.71	951.8	8.1388	45.849	1029.4	-1.0112	46.229	957.55	86.421	-292.08	20.315	-42.235	-216.55	1126.2	-12.342	-421.18	130.59	-89.478	-488.65	145.94	-57.023	-166.54	1013.2	166.79
